{
  "accessors": [
    {
      "bufferView": 2,
      "componentType": 5126,
      "count": 25690,
      "max": [
        6.584893703460693,
        9.588262557983398,
        7.77983283996582
      ],
      "min": [
        -2.0731444358825684,
        -0.07706356048583984,
        -7.779832363128662
      ],
      "type": "VEC3"
    },
    {
      "bufferView": 2,
      "byteOffset": 308280,
      "componentType": 5126,
      "count": 25690,
      "max": [
        0.9999709725379944,
        0.9999781250953674,
        1.0
      ],
      "min": [
        -0.99969083070755,
        -0.9999691843986511,
        -1.0
      ],
      "type": "VEC3"
    },
    {
      "bufferView": 1,
      "componentType": 5126,
      "count": 25690,
      "max": [
        0.9935312271118164,
        0.9889782071113586
      ],
      "min": [
        0.006976425647735596,
        0.00765460729598999
      ],
      "type": "VEC2"
    },
    {
      "bufferView": 1,
      "byteOffset": 205520,
      "componentType": 5126,
      "count": 25690,
      "max": [
        0.9935312271118164,
        0.9889782071113586
      ],
      "min": [
        0.006976425647735596,
        0.00765460729598999
      ],
      "type": "VEC2"
    },
    {
      "bufferView": 1,
      "byteOffset": 411040,
      "componentType": 5126,
      "count": 25690,
      "max": [
        0.9935312271118164,
        0.9889782071113586
      ],
      "min": [
        0.006976425647735596,
        0.00765460729598999
      ],
      "type": "VEC2"
    },
    {
      "bufferView": 1,
      "byteOffset": 616560,
      "componentType": 5126,
      "count": 25690,
      "max": [
        0.9935312271118164,
        0.9889782071113586
      ],
      "min": [
        0.006976425647735596,
        0.00765460729598999
      ],
      "type": "VEC2"
    },
    {
      "bufferView": 1,
      "byteOffset": 822080,
      "componentType": 5126,
      "count": 25690,
      "max": [
        0.9935312271118164,
        0.9889782071113586
      ],
      "min": [
        0.006976425647735596,
        0.00765460729598999
      ],
      "type": "VEC2"
    },
    {
      "bufferView": 1,
      "byteOffset": 1027600,
      "componentType": 5126,
      "count": 25690,
      "max": [
        0.9935312271118164,
        0.9889782071113586
      ],
      "min": [
        0.006976425647735596,
        0.00765460729598999
      ],
      "type": "VEC2"
    },
    {
      "bufferView": 1,
      "byteOffset": 1233120,
      "componentType": 5126,
      "count": 25690,
      "max": [
        0.9935312271118164,
        0.9889782071113586
      ],
      "min": [
        0.006976425647735596,
        0.00765460729598999
      ],
      "type": "VEC2"
    },
    {
      "bufferView": 1,
      "byteOffset": 1438640,
      "componentType": 5126,
      "count": 25690,
      "max": [
        0.9935312271118164,
        0.9889782071113586
      ],
      "min": [
        0.006976425647735596,
        0.00765460729598999
      ],
      "type": "VEC2"
    },
    {
      "bufferView": 1,
      "byteOffset": 1644160,
      "componentType": 5126,
      "count": 25690,
      "max": [
        0.9935312271118164,
        0.9889782071113586
      ],
      "min": [
        0.006976425647735596,
        0.00765460729598999
      ],
      "type": "VEC2"
    },
    {
      "bufferView": 0,
      "componentType": 5125,
      "count": 129357,
      "type": "SCALAR"
    }
  ],
  "asset": {
    "extras": {
      "author": "Nebula Games (https://sketchfab.com/NebulaGamesCreations)",
      "license": "CC-BY-4.0 (http://creativecommons.org/licenses/by/4.0/)",
      "source": "https://sketchfab.com/3d-models/xbox-controller-black-microsoft-paint-3d-52fea6f74a604e1daae186e89bb69a94",
      "title": "XBOX Controller (Black) - Microsoft Paint 3D"
    },
    "generator": "Sketchfab-16.16.0",
    "version": "2.0"
  },
  "bufferViews": [
    {
      "buffer": 0,
      "byteLength": 517428,
      "name": "floatBufferViews",
      "target": 34963
    },
    {
      "buffer": 0,
      "byteLength": 1849680,
      "byteOffset": 517428,
      "byteStride": 8,
      "name": "floatBufferViews",
      "target": 34962
    },
    {
      "buffer": 0,
      "byteLength": 616560,
      "byteOffset": 2367108,
      "byteStride": 12,
      "name": "floatBufferViews",
      "target": 34962
    }
  ],
  "buffers": [
    {
      "byteLength": 2983668,
      "uri": "scene.bin"
    }
  ],
  "images": [
    {
      "uri": "textures/Material_91_baseColor.png"
    }
  ],
  "materials": [
    {
      "doubleSided": true,
      "name": "Material_91",
      "pbrMetallicRoughness": {
        "baseColorTexture": {
          "index": 0
        },
        "metallicFactor": 0.0,
        "roughnessFactor": 0.0
      }
    }
  ],
  "meshes": [
    {
      "name": "node_id66_Material_91_0",
      "primitives": [
        {
          "attributes": {
            "NORMAL": 1,
            "POSITION": 0,
            "TEXCOORD_0": 2,
            "TEXCOORD_1": 3,
            "TEXCOORD_2": 4,
            "TEXCOORD_3": 5,
            "TEXCOORD_4": 6,
            "TEXCOORD_5": 7,
            "TEXCOORD_6": 8,
            "TEXCOORD_7": 9,
            "TEXCOORD_8": 10
          },
          "indices": 11,
          "material": 0,
          "mode": 4
        }
      ]
    }
  ],
  "nodes": [
    {
      "children": [
        1
      ],
      "matrix": [
        1.0,
        0.0,
        0.0,
        0.0,
        0.0,
        2.220446049250313e-16,
        -1.0,
        0.0,
        0.0,
        1.0,
        2.220446049250313e-16,
        0.0,
        0.0,
        0.0,
        0.0,
        1.0
      ],
      "name": "Sketchfab_model"
    },
    {
      "children": [
        2
      ],
      "matrix": [
        0.009999999776482582,
        0.0,
        0.0,
        0.0,
        0.0,
        0.0,
        0.009999999776482582,
        0.0,
        0.0,
        -0.009999999776482582,
        0.0,
        0.0,
        0.0,
        0.0,
        0.0,
        1.0
      ],
      "name": "af496d01023d46c79b956c47f84c258f.fbx"
    },
    {
      "children": [
        3
      ],
      "name": "RootNode"
    },
    {
      "children": [
        4
      ],
      "name": "root"
    },
    {
      "children": [
        5
      ],
      "matrix": [
        0.052972860634326935,
        0.0,
        0.0,
        0.0,
        0.0,
        0.052972860634326935,
        0.0,
        0.0,
        0.0,
        0.0,
        0.052972860634326935,
        0.0,
        -0.34482917189598083,
        -0.09348995238542557,
        0.3385124206542969,
        1.0
      ],
      "name": "node_id66"
    },
    {
      "mesh": 0,
      "name": "node_id66_Material_91_0"
    }
  ],
  "samplers": [
    {
      "magFilter": 9729,
      "minFilter": 9987,
      "wrapS": 10497,
      "wrapT": 10497
    }
  ],
  "scene": 0,
  "scenes": [
    {
      "name": "Sketchfab_Scene",
      "nodes": [
        0
      ]
    }
  ],
  "textures": [
    {
      "sampler": 0,
      "source": 0
    }
  ]
}
